<?xml version="1.0" encoding="utf-8"?>
<!-- Generator: $$$/GeneralStr/196=Adobe Illustrator 27.6.0, SVG Export Plug-In . SVG Version: 6.00 Build 0)  -->
<svg version="1.1" id="圖層_1" xmlns="http://www.w3.org/2000/svg" xmlns:xlink="http://www.w3.org/1999/xlink" x="0px" y="0px"
	 viewBox="0 0 124 124" style="enable-background:new 0 0 124 124;" xml:space="preserve">
<style type="text/css">
	.st0{fill:#603D1D;}
</style>
<path class="st0" d="M11.4,53.5c0,0-16.7-6.3-8.8-23.3c1.7-3.6,4.3-6.8,7.9-8.4c3.7-1.6,7.9-1.5,11.7-0.5c4,1,8.5,2.7,10.5,6.5
	c0.7,1.2,1.2,2.6,1.7,3.9c0,0,11.7-6.3,27.3-5.7c15.6,0.6,27.1,6.3,27.1,6.3s4.6-12.6,17.8-11.8s18.1,12.6,16.8,18.9
	s-0.3,9.7-11.8,14c1.1,4.6,6.3,20.8-2.1,33.5s-32.8,17.8-57.2,16S-1.2,94.6,11.4,53.5z"/>
<g>
</g>
<g>
</g>
<g>
</g>
<g>
</g>
<g>
</g>
<g>
</g>
<g>
</g>
<g>
</g>
<g>
</g>
<g>
</g>
<g>
</g>
<g>
</g>
<g>
</g>
<g>
</g>
<g>
</g>
</svg>
